<svg width="105.000000" height="40.000000" viewBox="0 0 105 40" fill="none" xmlns="http://www.w3.org/2000/svg" xmlns:xlink="http://www.w3.org/1999/xlink">
	<desc>
			Created with Pixso.
	</desc>
	<defs>
		<clipPath id="clip0_869">
			<rect id="Group 25" width="105.000000" height="40.000000" fill="white" fill-opacity="0"/>
		</clipPath>
	</defs>
	<rect id="Group 25" width="105.000000" height="40.000000" fill="#FFFFFF" fill-opacity="0"/>
	<g clip-path="url(#clip0_869)">
		<rect id="Rectangle" rx="20.000000" width="105.000000" height="40.000000" fill="#2BD0D0" fill-opacity="1.000000"/>
		<path id="Sign Up" d="M34.55 16.53Q34.93 16.76 35.44 16.76Q35.92 16.76 36.27 16.55Q36.41 16.47 36.53 16.36Q36.74 16.16 36.85 15.92Q36.96 15.67 36.96 15.37Q36.96 15.05 36.83 14.78Q36.72 14.56 36.53 14.38Q36.41 14.27 36.26 14.18Q35.91 13.98 35.44 13.98Q34.93 13.98 34.56 14.21Q34.44 14.28 34.34 14.38Q34.14 14.56 34.04 14.78Q33.91 15.05 33.91 15.37Q33.91 15.67 34.02 15.92Q34.12 16.16 34.34 16.36Q34.44 16.45 34.55 16.53ZM26.66 25.73Q27.58 26.1 28.73 26.1Q29.92 26.1 30.79 25.67Q31.57 25.28 32.01 24.65Q32.07 24.58 32.12 24.5Q32.29 24.22 32.4 23.93Q32.58 23.43 32.58 22.86Q32.58 21.94 32.14 21.35Q32.12 21.33 32.11 21.31Q31.73 20.82 31.23 20.52Q31.12 20.46 31.01 20.4Q30.37 20.08 29.35 19.74Q28.33 19.41 27.85 19.12Q27.57 18.96 27.45 18.71Q27.37 18.54 27.37 18.33Q27.37 17.96 27.55 17.73Q27.6 17.67 27.65 17.62Q27.69 17.59 27.72 17.57Q27.99 17.37 28.4 17.37Q28.87 17.37 29.19 17.59Q29.24 17.62 29.29 17.66Q29.4 17.75 29.47 17.87Q29.64 18.11 29.66 18.47L32.44 18.47Q32.39 17.52 31.94 16.84Q31.69 16.45 31.3 16.15Q30.24 15.32 28.5 15.32Q26.79 15.32 25.73 16.14Q25.72 16.14 25.72 16.15Q25.3 16.47 25.05 16.89Q24.65 17.55 24.65 18.45Q24.65 19.44 25.12 20.06Q25.5 20.56 26.01 20.87Q26.12 20.93 26.23 20.99Q26.87 21.3 27.9 21.62Q28.6 21.82 28.98 21.99Q29.36 22.15 29.63 22.41Q29.74 22.52 29.8 22.64Q29.89 22.83 29.89 23.05Q29.89 23.35 29.76 23.56Q29.68 23.69 29.56 23.78Q29.23 24.05 28.66 24.05Q28.19 24.05 27.87 23.83Q27.81 23.79 27.76 23.74Q27.73 23.71 27.71 23.69Q27.41 23.38 27.36 22.85L24.62 22.85Q24.65 23.69 25.02 24.34Q25.1 24.48 25.2 24.61Q25.33 24.79 25.48 24.95Q25.97 25.44 26.66 25.73ZM64.57 21.77L64.57 15.47L62.01 15.47L62.01 21.75Q62.01 23.16 62.57 24.14Q62.92 24.74 63.41 25.15Q63.74 25.42 64.13 25.61Q65.11 26.1 66.36 26.1Q67.55 26.1 68.53 25.64Q68.57 25.63 68.61 25.61Q69.07 25.38 69.45 25.05Q69.9 24.66 70.22 24.13Q70.82 23.16 70.82 21.75L70.82 15.47L68.26 15.47L68.26 21.77Q68.26 22.69 67.8 23.2Q67.79 23.21 67.78 23.22Q67.72 23.29 67.65 23.35Q67.18 23.73 66.4 23.73Q65.61 23.73 65.16 23.34Q65.09 23.29 65.03 23.22Q64.57 22.71 64.57 21.77ZM43.31 17.87Q42.64 17.51 41.75 17.51Q41.1 17.51 40.52 17.72Q40.19 17.84 39.88 18.03Q39.73 18.12 39.6 18.22Q38.96 18.72 38.55 19.53Q38.07 20.51 38.07 21.79Q38.07 23.08 38.55 24.07Q38.96 24.88 39.6 25.39Q39.73 25.49 39.88 25.58Q40.2 25.79 40.55 25.91Q41.12 26.12 41.75 26.12Q42.64 26.12 43.3 25.75Q43.85 25.44 44.21 24.98Q44.28 24.89 44.34 24.79L44.34 25.98Q44.34 26.98 43.86 27.44Q43.78 27.53 43.68 27.59Q43.25 27.9 42.6 27.9Q41.93 27.9 41.48 27.62Q41.21 27.46 41.06 27.22Q40.96 27.06 40.92 26.87L38.38 26.87Q38.47 27.71 38.88 28.36Q39.2 28.86 39.7 29.24Q40.86 30.12 42.71 30.12Q44.11 30.12 45.05 29.56Q45.63 29.22 46.03 28.72Q46.27 28.42 46.44 28.07Q46.45 28.05 46.47 28.02Q46.9 27.1 46.9 25.98L46.9 17.62L44.34 17.62L44.34 18.81Q44.28 18.73 44.23 18.65Q43.88 18.17 43.31 17.87ZM75.35 18.58Q75.27 18.69 75.19 18.81L75.19 17.62L72.63 17.62L72.63 29.99L75.19 29.99L75.19 24.83Q75.21 24.86 75.23 24.89Q75.6 25.42 76.23 25.76Q76.9 26.12 77.77 26.12Q78.43 26.12 79.01 25.9Q79.34 25.78 79.65 25.58Q79.79 25.49 79.93 25.39Q80.57 24.88 80.97 24.07Q81.46 23.08 81.46 21.79Q81.46 20.51 80.97 19.53Q80.57 18.72 79.92 18.22Q79.79 18.12 79.65 18.03Q79.36 17.85 79.04 17.73Q78.45 17.51 77.77 17.51Q76.88 17.51 76.23 17.87Q75.7 18.15 75.35 18.58ZM55.61 17.99Q54.88 17.54 53.86 17.54Q53.03 17.54 52.37 17.86Q51.85 18.11 51.49 18.52Q51.4 18.62 51.32 18.74L51.32 17.62L48.76 17.62L48.76 26L51.32 26L51.32 21.45Q51.32 20.65 51.72 20.19Q51.74 20.17 51.76 20.15Q51.88 20.02 52.03 19.92Q52.4 19.68 52.93 19.68Q53.45 19.68 53.83 19.92Q53.97 20.01 54.1 20.15Q54.12 20.17 54.14 20.19Q54.54 20.65 54.54 21.45L54.54 26L57.08 26L57.08 21.11Q57.08 19.56 56.33 18.63Q56.27 18.56 56.21 18.49Q55.94 18.19 55.61 17.99ZM36.71 26L36.71 17.62L34.15 17.62L34.15 26L36.71 26ZM43.94 20.45Q44.34 20.98 44.34 21.81Q44.34 22.64 43.94 23.16Q43.87 23.25 43.8 23.33Q43.53 23.6 43.21 23.74Q42.89 23.88 42.5 23.88Q42.14 23.88 41.82 23.75Q41.48 23.61 41.2 23.32Q41.13 23.24 41.07 23.16Q40.67 22.63 40.67 21.79Q40.67 20.95 41.08 20.43Q41.14 20.36 41.2 20.29Q41.47 20.01 41.8 19.88Q42.12 19.74 42.5 19.74Q42.88 19.74 43.2 19.87Q43.53 20.01 43.8 20.3Q43.87 20.37 43.94 20.45ZM78.45 20.44Q78.85 20.96 78.85 21.79Q78.85 22.6 78.47 23.13Q78.39 23.23 78.31 23.32Q78.03 23.61 77.68 23.75Q77.37 23.88 77.01 23.88Q76.63 23.88 76.31 23.74Q75.98 23.61 75.71 23.33Q75.64 23.25 75.58 23.17Q75.17 22.64 75.17 21.81Q75.17 20.97 75.58 20.44Q75.64 20.37 75.71 20.3Q75.98 20.01 76.32 19.87Q76.63 19.74 77.01 19.74Q77.42 19.74 77.77 19.9Q78.07 20.03 78.32 20.29Q78.39 20.36 78.45 20.44Z" fill="#FFFFFF" fill-opacity="1.000000" fill-rule="evenodd"/>
	</g>
</svg>
