<svg width="24.000000" height="19.000000" viewBox="0 0 24 19" fill="none" xmlns="http://www.w3.org/2000/svg" xmlns:xlink="http://www.w3.org/1999/xlink">
	<desc>
			Created with Pixso.
	</desc>
	<defs/>
	<path id="Path" d="M24 2.24C23.11 2.63 22.16 2.88 21.17 3C22.18 2.41 22.97 1.47 23.33 0.35C22.38 0.9 21.33 1.29 20.2 1.51C19.31 0.58 18.03 0 16.61 0C13.43 0 11.1 2.88 11.81 5.88C7.72 5.68 4.1 3.77 1.67 0.87C0.38 3.03 1 5.85 3.19 7.28C2.38 7.25 1.62 7.04 0.96 6.68C0.91 8.9 2.54 10.98 4.91 11.44C4.22 11.62 3.46 11.67 2.68 11.52C3.31 13.43 5.13 14.81 7.29 14.85C5.21 16.43 2.61 17.14 0 16.84C2.17 18.2 4.76 19 7.54 19C16.68 19 21.85 11.47 21.54 4.73C22.5 4.05 23.34 3.21 24 2.24Z" fill="#FFFFFF" fill-opacity="1.000000" fill-rule="nonzero"/>
</svg>
