<svg width="24.000000" height="20.000000" viewBox="0 0 24 20" fill="none" xmlns="http://www.w3.org/2000/svg" xmlns:xlink="http://www.w3.org/1999/xlink">
	<desc>
			Created with Pixso.
	</desc>
	<defs/>
	<path id="Path" d="M22.67 0L1.32 0C0.59 0 0 0.49 0 1.1L0 18.89C0 19.5 0.59 20 1.32 20L12.82 20L12.82 12.25L9.69 12.25L9.69 9.23L12.82 9.23L12.82 7.01C12.82 4.42 14.71 3.02 17.47 3.02C18.8 3.02 19.94 3.1 20.27 3.14L20.27 5.84L18.35 5.84C16.85 5.84 16.56 6.43 16.56 7.31L16.56 9.23L20.14 9.23L19.68 12.25L16.56 12.25L16.56 20L22.67 20C23.4 20 24 19.5 24 18.89L24 1.1C24 0.49 23.4 0 22.67 0Z" fill="#FFFFFF" fill-opacity="1.000000" fill-rule="nonzero"/>
</svg>
