<svg width="24.000000" height="20.000000" viewBox="0 0 24 20" fill="none" xmlns="http://www.w3.org/2000/svg" xmlns:xlink="http://www.w3.org/1999/xlink">
	<desc>
			Created with Pixso.
	</desc>
	<defs/>
	<path id="Shape" d="M12 -0.629761C8.74097 -0.629761 8.33301 -0.618309 7.05298 -0.570869C2.69507 -0.407288 0.272949 1.57041 0.072998 5.13813C0.013916 6.18587 0 6.51958 0 9.18514C0 11.8507 0.013916 12.1852 0.0720215 13.2322C0.271973 16.7966 2.68994 18.7776 7.052 18.9412C8.33301 18.9886 8.74097 19 12 19C15.259 19 15.668 18.9886 16.948 18.9412C21.302 18.7776 23.73 16.7999 23.927 13.2322C23.9861 12.1852 24 11.8507 24 9.18514C24 6.51958 23.9861 6.18587 23.928 5.13895C23.7319 1.57777 21.311 -0.406471 16.949 -0.570053C15.668 -0.618309 15.259 -0.629761 12 -0.629761ZM16.8501 1.19662C15.5842 1.14919 15.2041 1.13937 12 1.13937C8.79614 1.13937 8.41699 1.14919 7.15112 1.1958C3.896 1.31686 2.3811 2.5797 2.23218 5.21909C2.17505 6.25457 2.16211 6.56455 2.16211 9.18513C2.16211 11.8065 2.17407 12.1165 2.23218 13.1512C2.38013 15.7857 3.89111 17.0534 7.15112 17.1753C8.41602 17.2227 8.79614 17.2325 12 17.2325C15.2061 17.2325 15.5842 17.2227 16.8501 17.1753C20.1052 17.0542 21.6201 15.7897 21.769 13.152C21.8262 12.1173 21.8381 11.8074 21.8381 9.18595C21.8381 6.56538 21.8271 6.25457 21.769 5.21992C21.6211 2.5797 20.1021 1.31767 16.8501 1.19662ZM16.9651 3.94645C16.9651 3.29621 17.6101 2.76865 18.406 2.76865C19.2012 2.76865 19.845 3.29621 19.845 3.94645C19.845 4.59668 19.2012 5.12424 18.406 5.12424C17.6101 5.12424 16.9651 4.59668 16.9651 3.94645ZM5.83789 9.18513C5.83789 6.40179 8.59692 4.14519 12 4.14519C15.4028 4.14519 18.1619 6.40179 18.1619 9.18513C18.1619 11.9693 15.4028 14.2259 12 14.2259C8.59692 14.2259 5.83789 11.9685 5.83789 9.18513ZM12 12.4568C9.79102 12.4568 8 10.9927 8 9.18515C8 7.37839 9.79102 5.91351 12 5.91351C14.209 5.91351 16 7.37839 16 9.18515C16 10.9927 14.209 12.4568 12 12.4568Z" clip-rule="evenodd" fill="#FFFFFF" fill-opacity="1.000000" fill-rule="evenodd"/>
</svg>
